<svg width="23" height="27" viewBox="0 0 23 27" fill="none" xmlns="http://www.w3.org/2000/svg">
<path d="M12.6808 0C14.7515 0 15.189 0.0273504 16.2468 0.0810384C17.4659 0.148908 18.3063 0.377842 19.0311 0.716178C19.7903 1.0535 20.4349 1.52656 21.0673 2.26908C21.7118 3.01159 22.1027 3.76829 22.4021 4.65971C22.6894 5.51062 22.874 6.49625 22.931 7.94177C22.9888 9.22522 23 9.72462 23 12.4262V14.5869C23 17.2885 22.9888 17.7879 22.931 19.0714C22.9111 20.2515 22.7187 21.3709 22.3822 22.4082L22.4012 22.3403C22.1018 23.2317 21.711 23.9884 21.0785 24.7309C20.434 25.4876 19.7903 25.9465 19.0311 26.298C18.3063 26.6353 17.4668 26.8521 16.2468 26.919C15.1536 26.9868 14.717 27 12.4159 27H10.5867C8.28559 27 7.86022 26.9868 6.75582 26.919C5.75065 26.8957 4.79724 26.6698 3.91372 26.2747L3.97153 26.297C3.17515 25.9394 2.49612 25.4116 1.93615 24.7441L1.93529 24.7431C1.36066 24.0826 0.906816 23.2803 0.61346 22.3838L0.600518 22.3383C0.283865 21.3699 0.0914581 20.2495 0.0716134 19.0795V19.0694C0.0258843 18.0138 0 16.777 0 15.5341C0 15.3051 0.000862625 15.0762 0.00258825 14.8483V14.8827V12.1142C0.00258825 9.68309 0.0258843 9.16951 0.0716134 7.92759C0.129422 6.49625 0.324417 5.5096 0.600518 4.6587C0.899914 3.76728 1.29077 3.01058 1.93529 2.26806C2.4918 1.59241 3.17256 1.06262 3.93443 0.729346L3.97153 0.715165C4.79551 0.339349 5.74892 0.108389 6.74547 0.0810384H6.75582C7.8145 0.0273504 8.25108 0 10.3218 0H12.6808ZM12.7041 2.43115H10.2994C8.30889 2.43115 7.88352 2.45851 6.84815 2.51219C5.73253 2.56588 5.12252 2.78266 4.71959 2.97107C4.1786 3.21419 3.79896 3.51099 3.39689 3.98405C2.99482 4.45712 2.74116 4.90283 2.53408 5.53696C2.38481 6.01002 2.18896 6.72518 2.14323 8.04915C2.0975 9.26473 2.0742 9.75096 2.0742 12.1011V14.9101C2.0742 17.2602 2.0975 17.7464 2.14323 18.962C2.18896 20.2718 2.3736 20.988 2.53408 21.461C2.74116 22.0962 2.99396 22.5419 3.39689 23.0139C3.79983 23.486 4.17947 23.7838 4.71959 24.0269C5.12252 24.2163 5.73167 24.4321 6.85936 24.4858C7.97498 24.5537 8.37791 24.5668 10.8628 24.5668H12.1398C14.6359 24.5668 15.0276 24.5537 16.1544 24.4858C17.2701 24.4321 17.8801 24.2153 18.283 24.0269C18.824 23.7838 19.2036 23.487 19.6057 23.0139C20.0078 22.5409 20.2614 22.0951 20.4685 21.461C20.6299 20.988 20.8136 20.2728 20.8594 18.962C20.9172 17.638 20.9284 17.1791 20.9284 14.2486V12.7625C20.9284 9.832 20.9172 9.35893 20.8594 8.03497C20.8136 6.72518 20.629 6.009 20.4685 5.53594C20.2735 4.92714 19.9793 4.40748 19.6066 3.98405L19.6057 3.98304C19.2433 3.54442 18.8016 3.19899 18.3072 2.97918L18.283 2.97006C17.6514 2.69048 16.9215 2.52334 16.1588 2.51118H16.1544C15.2675 2.45851 14.2295 2.42812 13.1846 2.42812C13.0155 2.42812 12.8464 2.42913 12.6773 2.43014H12.7032L12.7041 2.43115ZM11.5073 6.56412C14.7696 6.56412 17.415 9.66891 17.415 13.5C17.415 17.3311 14.7705 20.4359 11.5073 20.4359C8.24504 20.4359 5.59965 17.3311 5.59965 13.5C5.59965 9.66891 8.24418 6.56412 11.5073 6.56412ZM11.5073 8.99527C9.38827 8.99527 7.67041 11.0121 7.67041 13.5C7.67041 15.9879 9.38827 18.0047 11.5073 18.0047C13.6264 18.0047 15.3443 15.9879 15.3443 13.5C15.3443 11.0121 13.6264 8.99527 11.5073 8.99527ZM17.6393 4.67288C18.4021 4.67288 19.0198 5.39818 19.0198 6.29365C19.0198 7.18913 18.4021 7.91442 17.6393 7.91442C16.8766 7.91442 16.2588 7.18913 16.2588 6.29365C16.2588 5.39818 16.8766 4.67288 17.6393 4.67288Z" fill="white"/>
</svg>
