<svg width="26" height="29" viewBox="0 0 26 29" fill="none" xmlns="http://www.w3.org/2000/svg">
<path d="M13 0C5.81507 0.029361 0 6.50945 0 14.4989C0 20.5875 3.37769 25.8007 8.16341 27.9484L8.25049 27.9832C8.12035 26.8382 8.02838 25.083 8.28963 23.8216L9.81605 16.6151C9.81605 16.6151 9.42466 15.7451 9.42466 14.4696C9.42466 12.4545 10.4814 10.9604 11.7994 10.9604C12.908 10.9604 13.456 11.888 13.456 12.9906C13.456 14.2379 12.7387 16.0931 12.3601 17.8189C12.047 19.2684 13.0127 20.4429 14.3043 20.4429C16.6262 20.4429 18.4012 17.7319 18.4012 13.8171C18.4012 10.3373 16.1575 7.93074 12.9481 7.93074C12.8738 7.92639 12.7877 7.92422 12.7006 7.92422C9.58024 7.92422 7.05186 10.7353 7.05186 14.202C7.05186 14.2042 7.05186 14.2064 7.05186 14.2086C7.05186 15.4559 7.48239 16.7891 8.01761 17.5144C8.12231 17.659 8.13503 17.7895 8.09589 17.9352L7.73092 19.574C7.67906 19.835 7.53523 19.9079 7.30039 19.7774C5.65656 18.9216 4.63894 16.2975 4.63894 14.152C4.63894 9.58475 7.63992 5.39482 13.2759 5.39482C17.7896 5.39482 21.3258 8.96164 21.3258 13.7605C21.3258 18.7628 18.4814 22.7787 14.5421 22.7787C13.2378 22.7787 11.9853 22.0099 11.5675 21.1117L10.7456 24.548C10.3239 26.0019 9.77495 27.2644 9.09393 28.4226L9.1272 28.3617C10.272 28.7662 11.589 29 12.954 29C20.1595 29 26 22.508 26 14.5011C26 6.51163 20.1859 0.0315358 13.0039 0.00217473H13.001L13 0Z" fill="white"/>
</svg>
